<?xml version="1.0" encoding="utf-8"?>
<!-- Generator: Adobe Illustrator 25.4.1, SVG Export Plug-In . SVG Version: 6.00 Build 0)  -->
<svg version="1.1" id="Layer_1" xmlns="http://www.w3.org/2000/svg" xmlns:xlink="http://www.w3.org/1999/xlink" x="0px" y="0px"
	 viewBox="0 0 64 64" style="enable-background:new 0 0 64 64;" xml:space="preserve">
<style type="text/css">
	.st0{fill:#262234;}
	.st1{fill:#2A292A;}
	.st2{opacity:0.1;fill:#FFFFFF;enable-background:new    ;}
	.st3{fill:#FFA517;}
	.st4{fill:#FFD2B4;}
	.st5{opacity:0.1;fill:#262234;enable-background:new    ;}
	.st6{fill:#611C24;}
	.st7{fill:#BE1E2D;}
	.st8{fill:#FFFFFF;}
	.st9{fill:#D1D3D4;}
	.st10{fill:#F1F2F2;}
	.st11{opacity:0.5;fill:#3B3C3D;enable-background:new    ;}
</style>
<path class="st0" d="M50.7,64.1c-11.7,9.3-28.2,9.3-39.8,0l0.9-3.2c1.4-4.6,5.6-7.8,10.5-7.7h17.1c4.8,0,9.1,3.1,10.5,7.7L50.7,64.1
	z"/>
<path class="st1" d="M50.7,64.1c-11.7,9.3-28.2,9.3-39.8,0l0.9-3.2c1.4-4.6,5.6-7.8,10.5-7.7h17.1c4.8,0,9.1,3.1,10.5,7.7L50.7,64.1
	z"/>
<path class="st2" d="M35.5,53.2v1.7c0,0.4-0.2,0.8-0.6,1l-3.6,1.8c-0.3,0.2-0.7,0.2-1,0l-3.6-1.8c-0.4-0.2-0.6-0.6-0.6-1v-1.7h-2.4
	v1.7c0,1.3,0.8,2.5,1.9,3.1l3.6,1.8c1,0.5,2.1,0.5,3.1,0l3.6-1.8c1.2-0.5,2-1.7,2.1-3.1v-1.7H35.5z"/>
<path class="st3" d="M25.6,42.1c-1,0-2,0.3-2.7,0.9c-0.3-0.4-0.7-0.7-1.1-0.9c2.2-1.3,3-4.1,1.7-6.3c-0.1-0.1-0.2-0.3-0.3-0.4
	c2-1.6,2.3-4.5,0.7-6.5s-4.5-2.3-6.5-0.7c-1.9,1.5-2.3,4.3-0.9,6.3c-1.4,1.1-2.1,2.9-1.7,4.7c-2.4,0.8-3.8,3.4-3,5.8
	c0.5,1.6,1.8,2.7,3.4,3.1c1.1,2.3,3.8,3.3,6.1,2.2c0.3-0.1,0.5-0.3,0.8-0.5c1.7,1.9,4.6,2.1,6.6,0.4c1.9-1.7,2.1-4.6,0.4-6.6
	C28.2,42.7,26.9,42.1,25.6,42.1L25.6,42.1z M49.9,43.6c0-2-1.3-3.8-3.2-4.4c0.4-1.7-0.2-3.6-1.6-4.7c1.5-2.1,1-5-1.1-6.5
	c-2.1-1.5-5-1-6.5,1.1c-1.5,2-1.1,4.8,0.9,6.4c-1.5,2.1-1,4.9,1,6.4c0.1,0.1,0.3,0.2,0.4,0.3c-0.4,0.2-0.8,0.5-1.1,0.9
	c-2.1-1.5-5-1.1-6.5,1c-1.5,2.1-1.1,5,1,6.5c1.9,1.4,4.6,1.1,6.2-0.7c2,1.5,4.9,1.1,6.5-0.9c0.2-0.2,0.3-0.5,0.5-0.8
	C48.4,47.6,49.9,45.7,49.9,43.6z"/>
<path class="st4" d="M35.5,48.4v6.5c0,0.4-0.2,0.8-0.6,1l-3.6,1.8c-0.3,0.2-0.7,0.2-1,0l-3.6-1.8c-0.4-0.2-0.6-0.6-0.6-1v-6.5
	c0-0.6,0.5-1.1,1.1-1.1h7.3C35,47.2,35.5,47.7,35.5,48.4C35.5,48.3,35.5,48.4,35.5,48.4z"/>
<path class="st4" d="M30.8,19c13.1,0,12,12.8,12,12.8c1.9-0.2,3.4,0.6,3.4,3.4s-1.2,3.4-2.7,3.6c-0.2,0-0.3,0.2-0.3,0.3
	c-0.5,4.4-3.4,7.6-6.4,9.7c-3.6,2.7-8.5,2.7-12.1,0c-2.9-2.2-5.9-5.4-6.4-9.7c0-0.2-0.1-0.3-0.3-0.3c-1.5-0.2-2.7-0.7-2.7-3.6
	s1.5-3.6,3.4-3.4C18.7,31.8,17.6,19,30.8,19z"/>
<path class="st5" d="M35.5,49.6V52c-3,1.6-6.5,1.6-9.5,0v-2.4C29,51.2,32.6,51.2,35.5,49.6z"/>
<circle class="st0" cx="26.1" cy="34.3" r="2"/>
<circle class="st0" cx="35.5" cy="34.3" r="2"/>
<path class="st6" d="M35.4,39.5c0.7,0,1.2,0.5,1.2,1.2c0,0.1,0,0.2,0,0.3c-0.8,3.2-4.1,5.1-7.2,4.3c-2.1-0.5-3.7-2.2-4.3-4.3
	c-0.2-0.6,0.2-1.3,0.9-1.4c0.1,0,0.2,0,0.3,0H35.4z"/>
<path class="st7" d="M33.7,44.8c-1.8,1-4,1-5.8,0c0.2-1.5,1.4-1.9,2.9-1.9S33.4,43.3,33.7,44.8z"/>
<path class="st8" d="M34.2,39.5v1.1c0,0.2-0.2,0.4-0.4,0.4h-5.9c-0.2,0-0.4-0.2-0.4-0.4v-1.1H34.2z"/>
<path class="st3" d="M44.5,27.3c-0.6-8.2-7.9-10.9-13.7-10.9s-13.1,2.8-13.7,10.9c-0.2,1.4-0.1,2.7,0.1,4.1c0.1,1.5,0.2,2.9,0.5,4.3
	c0.2,0.9,1.3,0.9,1.4,0.1c0.3-3,1.1-6,2.4-8.7c1.1,1,2.6,1.3,4,0.8c1.4,1.5,3.7,1.6,5.3,0.4c1.6,1.3,4,1.1,5.4-0.4
	c1.4,0.5,2.9,0.2,4-0.7c1.3,2.8,2.1,5.7,2.4,8.7c0.1,0.8,1.2,0.9,1.4-0.1c0.2-1.4,0.4-2.8,0.4-4.2C44.6,30.1,44.6,28.7,44.5,27.3z"
	/>
<path class="st9" d="M36.4,57v13.5c-3.7,0.7-7.5,0.7-11.2,0V57H36.4z"/>
<path class="st7" d="M32.5,61.3H29c-0.3,0-0.5-0.2-0.6-0.4l-0.9-3.1c-0.1-0.3,0.1-0.6,0.4-0.7c0,0,0.1,0,0.2,0h5.3
	c0.3,0,0.6,0.3,0.6,0.6c0,0.1,0,0.1,0,0.2l-0.8,3.1C33.1,61.2,32.8,61.4,32.5,61.3z"/>
<path class="st7" d="M33.5,70.9C32.6,71,31.7,71,30.8,71c-0.9,0-1.8,0-2.8-0.1l2-10.8h1.6L33.5,70.9z"/>
<polygon class="st10" points="30.8,57 26.4,61.8 23.9,53.2 26,50.9 "/>
<polygon class="st10" points="30.8,57 35.1,61.8 37.7,53.2 35.5,50.9 "/>
<path class="st1" d="M29.6,71c-2.8-0.1-5.5-0.5-8.1-1.3l0.1-16.5c0-0.6,0.4-1.1,1-1.2l2.9-0.5L29.6,71z M40.1,69.6
	c-2.6,0.8-5.4,1.3-8.1,1.4l4.2-19.4l2.9,0.5c0.6,0.1,1,0.6,1,1.2L40.1,69.6z M44.7,19.3H16.9v8.8c0,0.2,0.1,0.4,0.3,0.5l0,0
	c8.8,2.7,18.2,2.7,27.1,0l0,0c0.2-0.1,0.3-0.3,0.3-0.5L44.7,19.3z"/>
<path class="st11" d="M44.7,19.3v3.9l-12.1,2.6c-1.2,0.2-2.4,0.2-3.6,0l-12.1-2.6v-3.9H44.7z"/>
<path class="st1" d="M29,13.9l-16.9,3.6c-0.8,0.1-1.3,0.9-1.1,1.6c0.1,0.6,0.5,1,1.1,1.1L29,23.8c1.2,0.2,2.4,0.2,3.6,0l16.9-3.6
	c0.8-0.1,1.3-0.9,1.1-1.6c-0.1-0.6-0.5-1-1.1-1.1l-16.9-3.6C31.4,13.7,30.2,13.7,29,13.9z"/>
<rect x="48.4" y="19.4" class="st1" width="1.4" height="9"/>
<path class="st3" d="M50.4,30.3h-2.5c-0.3,0-0.5-0.2-0.5-0.5c0-0.1,0-0.1,0-0.2l1-2.5h1.4l1,2.5c0.1,0.2,0,0.5-0.3,0.6
	C50.5,30.3,50.4,30.3,50.4,30.3z"/>
<path class="st1" d="M48.3,26.8h1.7c0.2,0,0.4,0.2,0.4,0.4v0c0,0.2-0.2,0.4-0.4,0.4h-1.7c-0.2,0-0.4-0.2-0.4-0.4v0
	C47.9,27,48,26.8,48.3,26.8z"/>
</svg>
